# AST/ASF file generated using VICON BodyLanguage
# -----------------------------------------------
:version 1.10
:name VICON
:units
  mass 1.0
  length 0.45
  angle deg
:documentation
   .ast/.asf automatically generated from VICON data using
   VICON BodyBuilder and BodyLanguage model FoxedUp or BRILLIANT.MOD
:root
   order TX TY TZ RX RY RZ
   axis XYZ
   position 0 0 0  
   orientation 0 0 0 
:bonedata
  begin
     id 1 
     name lhipjoint
     direction 0.677091 -0.635792 0.370561 
     length 2.74323 
     axis 0 0 0  XYZ
  end
  begin
     id 2 
     name lfemur
     direction 0.34202 -0.939693 0  
     length 7.44995  
     axis 0 0 20  XYZ
    dof rx ry rz
    limits (-160.0 20.0)
           (-70.0 70.0)
           (-60.0 70.0)
  end
  begin
     id 3 
     name ltibia
     direction 0.34202 -0.939693 0   
     length 7.34467   
     axis 0 0 20   XYZ
    dof rx
    limits (-10.0 170.0)
  end
  begin
     id 4 
     name lfoot
     direction 0.101953 -0.280114 0.954537   
     length 1.72105   
     axis -90 7.62852e-016 20   XYZ
    dof rx rz
    limits (-45.0 90.0)
           (-70.0 20.0)
  end
  begin
     id 5 
     name ltoes
     direction 1.53537e-011 -4.21915e-011 1   
     length 0.865872   
     axis -90 7.62852e-016 20   XYZ
    dof rx
    limits (-90.0 20.0)
  end
  begin
     id 6 
     name rhipjoint
     direction -0.695735 -0.620586 0.361699   
     length 2.81045  
     axis 0 0 0  XYZ 
  end
  begin
     id 7 
     name rfemur
     direction -0.34202 -0.939693 0   
     length 7.29387   
     axis 0 0 -20   XYZ
    dof rx ry rz
    limits (-160.0 20.0)
           (-70.0 70.0)
           (-70.0 60.0)
  end
  begin
     id 8 
     name rtibia
     direction -0.34202 -0.939693 0   
     length 7.44935   
     axis 0 0 -20   XYZ
    dof rx
    limits (-10.0 170.0)
 end
 begin
     id 9 
     name rfoot
     direction -0.104163 -0.286184 0.952496   
     length 1.77731  
     axis -90 -7.62852e-016 -20   XYZ
    dof rx rz
    limits (-45.0 90.0)
           (-20.0 70.0)
  end
  begin
     id 10 
     name rtoes
     direction -1.5355e-011 -4.21888e-011 1   
     length 0.892424   
     axis -90 -7.62852e-016 -20   XYZ
    dof rx
    limits (-90.0 20.0)
  end
  begin
     id 11 
     name lowerback
     direction 0.0100202 0.997226 -0.0737589   
     length 2.16892   
     axis 0 0 0   XYZ
    dof rx ry rz
    limits (-20.0 45.0)
           (-30.0 30.0)
           (-30.0 30.0)
  end
  begin
     id 12 
     name upperback
     direction 0.00432398 0.999988 -0.00215019   
     length 2.17326   
     axis 0 0 0   XYZ
    dof rx ry rz
    limits (-20.0 45.0)
           (-30.0 30.0)
           (-30.0 30.0)
  end
  begin
     id 13 
     name thorax
     direction -0.00195047 0.999485 0.0320434   
     length 2.18139   
     axis 0 0 0   XYZ
    dof rx ry rz
    limits (-20.0 45.0)
           (-30.0 30.0)
           (-30.0 30.0)
  end
  begin
     id 14 
     name lowerneck
     direction 0.00782762 0.986241 0.165128   
     length 1.88415   
     axis 0 0 0   XYZ
    dof rx ry rz
    limits (-20.0 45.0)
           (-30.0 30.0)
           (-30.0 30.0)
  end
  begin
     id 15 
     name upperneck
     direction 0.00988667 0.981098 -0.193258   
     length 1.9242   
     axis 0 0 0   XYZ
    dof rx ry rz
    limits (-20.0 45.0)
           (-30.0 30.0)
           (-30.0 30.0)
  end
  begin
     id 16
     name head
     direction 0.00252199 0.996513 -0.0833958  
     length 1.93887  
     axis 0 0 0   XYZ
    dof rx ry rz
    limits (-20.0 45.0)
           (-30.0 30.0)
           (-30.0 30.0)
  end
  begin
     id 17 
     name lclavicle
     direction 0.929492 0.368193 -0.0218667  
     length 3.5955  
     axis 0 0 0   XYZ
    dof ry rz
    limits (-20.0 10.0)
           (0.0 20.0)
  end
  begin
     id 18 
     name lhumerus
     direction 1 -4.48972e-011 1.41911e-027   
     length 5.2795   
     axis 180 -30 -90   XYZ
    dof rx ry rz
    limits (-60.0 90.0)
           (-90.0 90.0)
           (-90.0 90.0)
  end
  begin
     id 19
     name lradius
     direction 1 -4.48963e-011 7.05772e-027   
     length 3.53504   
     axis 180 -30 -90   XYZ
    dof rx
    limits (-10.0 170.0)
  end
  begin
     id 20
     name lwrist
     direction 1 -4.48957e-011 9.54866e-027   
     length 1.76752   
     axis -7.69462e-015 90 90   XYZ
    dof ry
    limits (-180.0 0.0)
 end
  begin
     id 21 
     name lhand
     direction 1 -4.48979e-011 1.90973e-026   
     length 0.667948   
     axis -1.21857e-014 90 90   XYZ
    dof rx rz
    limits (-90.0 90.0)
           (-45.0 45.0)
  end
  begin
     id 22 
     name lfingers
     direction 1 -4.48987e-011 3.81946e-026   
     length 0.538517   
     axis -2.43714e-014 90 90   XYZ
    dof rx
    limits (0.0 90.0)
  end
  begin
     id 23
     name lthumb
     direction 0.707107 -6.34962e-011 0.707107   
     length 0.773206   
     axis -90 45 2.85299e-015   XYZ
    dof rx rz
    limits (-45.0 45.0)
           (-45.0 45.0)
  end
  begin
     id 24 
     name rclavicle
     direction -0.898763 0.414256 -0.143584   
     length 3.5176  
     axis 0 0 0   XYZ 
    dof ry rz
    limits (-10.0 20.0)
           (-20.0 0.0)
  end
  begin
     id 25 
     name rhumerus
     direction -1 -4.48971e-011 1.129e-027  
     length 5.25035   
     axis 180 30 90   XYZ
    dof rx ry rz
    limits (-90.0 60.0)
           (-90.0 90.0)
           (-90.0 90.0)
  end
  begin
     id 26 
     name rradius
     direction -1 -4.48955e-011 6.34664e-027   
     length 3.58884   
     axis 180 30 90   XYZ
    dof rx
    limits (-10.0 170.0)
  end
  begin
     id 27 
     name rwrist
     direction -1 -4.48966e-011 9.54866e-027   
     length 1.79442   
     axis -7.69462e-015 -90 -90   XYZ
    dof ry
    limits (-180.0 0.0)
  end
  begin
     id 28
     name rhand
     direction -1 -4.48973e-011 1.90973e-026   
     length 0.779235   
     axis -1.21857e-014 -90 -90   XYZ
    dof rx rz
    limits (-90.0 90.0)
           (-45.0 45.0)
  end
  begin
     id 29
     name rfingers
     direction -1 -4.48984e-011 3.81946e-026   
     length 0.62824   
     axis -2.43714e-014 -90 -90   XYZ
    dof rx
    limits (0.0 90.0)
  end
  begin
     id 30
     name rthumb
     direction -0.707107 -6.34968e-011 0.707107   
     length 0.90203   
     axis -90 -45 -2.85299e-015   XYZ
    dof rx rz
    limits (-45.0 45.0)
           (-45.0 45.0)
  end
:hierarchy
  begin
    root lhipjoint rhipjoint lowerback
    lhipjoint lfemur
    lfemur ltibia
    ltibia lfoot
    lfoot ltoes
    rhipjoint rfemur
    rfemur rtibia
    rtibia rfoot
    rfoot rtoes
    lowerback upperback
    upperback thorax
    thorax lowerneck lclavicle rclavicle
    lowerneck upperneck
    upperneck head
    lclavicle lhumerus
    lhumerus lradius
    lradius lwrist
    lwrist lhand lthumb
    lhand lfingers
    rclavicle rhumerus
    rhumerus rradius
    rradius rwrist
    rwrist rhand rthumb
    rhand rfingers
  end

#!OML:ASF I:\Random Stuff\random\construction\7_22_03\Session 2\subj1.ASF
:FULLY-SPECIFIED
:DEGREES
213
root -1.81353 17.8382 0.713977 -180.794 87.3944 -189.737
lowerback 2.84351 -0.638663 3.63587
upperback -1.00241 -0.469926 4.91049
thorax -2.62323 -0.202486 3.04931
lowerneck -13.7092 -12.74 -9.06157
upperneck 36.5083 -18.0879 7.48709
head 17.2872 -7.25947 1.47241
rclavicle -2.78299e-015 -6.83819e-014
rhumerus -21.5766 -28.5382 -67.9885
rradius 30.5103
rwrist -24.0738
rhand -38.644 25.6042
rfingers 7.12502
rthumb -11.6603 -4.05136
lclavicle -2.78299e-015 -6.83819e-014
lhumerus -36.7086 5.89015 87.8215
lradius 32.4566
lwrist 28.2653
lhand -18.9247 57.0721
lfingers 7.12502
lthumb 7.37785 86.9235
rfemur -9.19192 10.9068 17.8957
rtibia 13.6735
rfoot -5.92963 -23.7317
rtoes -14.6624
lfemur -12.5879 -20.6065 -13.4741
ltibia 14.7734
lfoot -10.5817 14.5727
ltoes -32.6616
214
root -1.80742 17.8431 0.73446 -182.303 87.2563 -191.4
lowerback 2.92678 -0.674885 3.65795
upperback -0.997108 -0.507853 4.96673
thorax -2.66367 -0.220424 3.09864
lowerneck -13.7694 -12.6718 -8.91425
upperneck 36.6091 -17.9595 7.3232
head 17.2945 -7.20122 1.40562
rclavicle 1.59028e-015 -1.59028e-015
rhumerus -21.6366 -28.1107 -68.0817
rradius 31.1444
rwrist -24.988
rhand -38.8863 26.7743
rfingers 7.12502
rthumb -11.894 -2.86784
lclavicle 1.59028e-015 -1.59028e-015
lhumerus -36.5477 5.84031 87.9935
lradius 32.6627
lwrist 28.1892
lhand -18.7287 56.7572
lfingers 7.12502
lthumb 7.56704 86.6019
rfemur -9.45274 10.6137 17.8503
rtibia 13.8786
rfoot -6.01182 -23.6163
rtoes -14.4889
lfemur -12.7042 -20.5298 -13.4515
ltibia 14.619
lfoot -10.4529 14.4288
ltoes -32.8133
215
root -1.79967 17.8456 0.751615 -182.775 87.2024 -191.993
lowerback 3.0021 -0.706018 3.72628
upperback -0.975685 -0.537537 5.03383
thorax -2.68361 -0.234448 3.13268
lowerneck -13.9499 -12.6233 -8.77875
upperneck 36.824 -17.8473 7.11364
head 17.3915 -7.14625 1.30953
rclavicle 8.34896e-015 3.33958e-014
rhumerus -21.7091 -27.5498 -68.1993
rradius 31.8247
rwrist -25.9885
rhand -38.6696 27.1092
rfingers 7.12502
rthumb -11.685 -2.54493
lclavicle 8.34896e-015 3.33958e-014
lhumerus -36.4671 5.67859 88.2094
lradius 33.0398
lwrist 28.2481
lhand -18.4236 56.6385
lfingers 7.12502
lthumb 7.86148 86.4723
rfemur -9.69648 10.2583 17.8712
rtibia 14.1124
rfoot -6.14358 -23.379
rtoes -14.5793
lfemur -12.7548 -20.8773 -13.353
ltibia 14.45
lfoot -10.4062 14.7854
ltoes -32.5321
216
root -1.79062 17.8485 0.766146 -184.105 87.1498 -193.424
lowerback 3.06927 -0.76165 3.75776
upperback -0.972521 -0.603268 5.06914
thorax -2.71662 -0.266953 3.15642
lowerneck -13.7778 -12.5405 -8.68475
upperneck 36.747 -17.7192 7.05825
head 17.2692 -7.10094 1.31137
rclavicle -3.57812e-015 -4.13472e-014
rhumerus -21.8866 -26.9898 -68.3013
rradius 32.531
rwrist -27.288
rhand -38.0089 26.5431
rfingers 7.12502
rthumb -11.0479 -3.14615
lclavicle -3.57812e-015 -4.13472e-014
lhumerus -36.3737 5.4956 88.4154
lradius 33.4326
lwrist 28.3153
lhand -18.2209 56.5249
lfingers 7.12502
lthumb 8.05712 86.3513
rfemur -9.89404 9.92099 17.8422
rtibia 14.3292
rfoot -6.34203 -23.1389
rtoes -14.29
lfemur -12.7896 -21.3316 -13.3124
ltibia 14.308
lfoot -10.2926 15.2097
ltoes -32.5169
217
root -1.78211 17.8519 0.780092 -186.866 87.0886 -196.318
lowerback 3.05563 -0.806916 3.68123
upperback -0.968073 -0.669774 5.05829
thorax -2.70151 -0.299449 3.19133
lowerneck -13.7068 -12.4843 -8.48846
upperneck 36.677 -17.6474 6.96173
head 17.1628 -7.06664 1.26057
rclavicle 1.59028e-014 -3.18055e-015
rhumerus -22.0429 -26.632 -68.3928
rradius 33.108
rwrist -29.1076
rhand -37.3882 25.9292
rfingers 7.12502
rthumb -10.4492 -3.79112
lclavicle 1.59028e-014 -3.18055e-015
lhumerus -36.1939 5.28697 88.5864
lradius 33.7368
lwrist 28.3928
lhand -18.0716 56.1077
lfingers 7.12502
lthumb 8.20123 85.9285
rfemur -10.1082 9.63208 17.7167
rtibia 14.5111
rfoot -6.50312 -22.9397
rtoes -14.0652
lfemur -12.878 -21.3754 -13.39
ltibia 14.2075
lfoot -10.1042 15.2783
ltoes -33.0068
